<svg xmlns="http://www.w3.org/2000/svg" xmlns:xlink="http://www.w3.org/1999/xlink" version="1.1" width="256" height="256" viewBox="0 0 256 256" xml:space="preserve">

<defs>
</defs>
<g style="stroke: none; stroke-width: 0; stroke-dasharray: none; stroke-linecap: butt; stroke-linejoin: miter; stroke-miterlimit: 10; fill: none; fill-rule: nonzero; opacity: 1;" transform="translate(1.4065934065934016 1.4065934065934016) scale(2.81 2.81)" >
	<path d="M 45 90 C 20.187 90 0 69.813 0 45 C 0 20.187 20.187 0 45 0 c 24.813 0 45 20.187 45 45 C 90 69.813 69.813 90 45 90 z M 45 7 C 24.047 7 7 24.047 7 45 s 17.047 38 38 38 s 38 -17.047 38 -38 S 65.953 7 45 7 z" style="stroke: currentColor; stroke-width: 0; stroke-dasharray: none; stroke-linecap: butt; stroke-linejoin: miter; stroke-miterlimit: 10; fill: currentColor; fill-rule: nonzero; opacity: 1;" transform=" matrix(1 0 0 1 0 0) " stroke-linecap="round" />
	<circle cx="30.85" cy="33.68" r="7" style="stroke: currentColor; stroke-width: 0; stroke-dasharray: none; stroke-linecap: butt; stroke-linejoin: miter; stroke-miterlimit: 10; fill: currentColor; fill-rule: nonzero; opacity: 1;" transform="  matrix(1 0 0 1 0 0) "/>
	<circle cx="59.15" cy="33.68" r="7" style="stroke: currentColor; stroke-width: 0; stroke-dasharray: none; stroke-linecap: butt; stroke-linejoin: miter; stroke-miterlimit: 10; fill: currentColor; fill-rule: nonzero; opacity: 1;" transform="  matrix(1 0 0 1 0 0) "/>
	<path d="M 61.691 65.942 c -0.778 0 -1.563 -0.259 -2.212 -0.789 c -4.136 -3.379 -9.143 -5.165 -14.479 -5.165 s -10.344 1.786 -14.479 5.164 c -1.496 1.224 -3.702 1.002 -4.925 -0.495 s -1.001 -3.702 0.496 -4.925 c 5.322 -4.35 12.038 -6.744 18.908 -6.744 s 13.585 2.395 18.907 6.743 c 1.497 1.224 1.72 3.429 0.497 4.925 C 63.712 65.504 62.706 65.942 61.691 65.942 z" style="stroke: currentColor; stroke-width: 0; stroke-dasharray: none; stroke-linecap: butt; stroke-linejoin: miter; stroke-miterlimit: 10; fill: currentColor; fill-rule: nonzero; opacity: 1;" transform=" matrix(1 0 0 1 0 0) " stroke-linecap="round" />
</g>
</svg>